<svg xmlns="http://www.w3.org/2000/svg" version="1.0" preserveAspectRatio="xMidYMid meet" viewBox="1429 1149 2142 973">

<g transform="translate(0.000000,3271.000000) scale(0.100000,-0.100000)" fill="#000000" stroke="none">
<path d="M14290 16355 l0 -4865 1680 0 1680 0 0 1325 0 1325 1632 2 1633 3 231 1270 c127 699 234 1287 238 1308 l7 37 -1871 0 -1870 0 0 800 0 800 2015 0 2015 0 5 23 c3 12 118 643 255 1402 138 759 253 1392 256 1408 l6 27 -3956 0 -3956 0 0 -4865z"/>
<path d="M23151 21168 c-6 -29 -402 -2206 -881 -4838 -478 -2632 -873 -4797 -876 -4812 l-6 -28 1689 0 1688 0 380 2775 c209 1526 382 2775 385 2775 4 0 541 -1646 1726 -5287 l86 -263 1141 0 1142 0 910 2730 c500 1501 912 2726 916 2722 5 -6 631 -5419 629 -5444 0 -5 768 -8 1706 -8 l1706 0 -6 33 c-3 17 -400 2196 -881 4842 -481 2646 -877 4820 -880 4833 l-5 22 -1941 -2 -1942 -3 -681 -2277 c-374 -1252 -684 -2274 -687 -2270 -4 4 -313 999 -687 2212 -375 1213 -690 2235 -702 2273 l-21 67 -1949 0 -1949 0 -10 -52z"/>
<path d="M34110 21140 l0 -80 110 0 110 0 0 -210 0 -210 105 0 105 0 0 210 0 210 110 0 110 0 0 80 0 80 -325 0 -325 0 0 -80z"/>
<path d="M34830 20930 l0 -290 96 0 95 0 -3 205 c-2 113 -3 205 -2 205 0 0 34 -92 74 -205 l74 -205 101 0 100 0 75 195 75 196 3 -196 2 -195 95 0 95 0 0 290 0 290 -159 0 -158 0 -57 -163 c-31 -90 -56 -170 -56 -177 0 -32 -20 14 -75 173 l-58 167 -158 0 -159 0 0 -290z"/>
</g>
</svg>